<mxfile host="app.diagrams.net" modified="2022-06-19T15:50:35.184Z" agent="5.0 (Macintosh; Intel Mac OS X 10_15_7) AppleWebKit/537.36 (KHTML, like Gecko) Chrome/102.0.0.0 Safari/537.36" etag="8QXKVPKdlXOoBSTLRP5g" version="20.0.1" type="github">
  <diagram id="LAiEwA4ejN9WoNMm-dOn" name="Page-1">
    <mxGraphModel dx="916" dy="772" grid="1" gridSize="10" guides="1" tooltips="1" connect="1" arrows="1" fold="1" page="1" pageScale="1" pageWidth="827" pageHeight="1169" math="0" shadow="0">
      <root>
        <mxCell id="0" />
        <mxCell id="1" parent="0" />
        <mxCell id="dXw9PHnPfxB79rEIN8Ye-19" value="" style="rounded=0;whiteSpace=wrap;html=1;labelBackgroundColor=#FF0000;fontSize=16;strokeColor=none;" vertex="1" parent="1">
          <mxGeometry x="60" y="70" width="770" height="560" as="geometry" />
        </mxCell>
        <mxCell id="dXw9PHnPfxB79rEIN8Ye-18" value="&lt;span style=&quot;background-color: rgb(255, 0, 0);&quot;&gt;&amp;nbsp; &amp;nbsp; commit 阶段&lt;/span&gt;" style="rounded=1;whiteSpace=wrap;html=1;fontSize=16;align=left;verticalAlign=top;fillColor=#cdeb8b;strokeColor=#36393d;" vertex="1" parent="1">
          <mxGeometry x="310" y="360" width="480" height="200" as="geometry" />
        </mxCell>
        <mxCell id="dXw9PHnPfxB79rEIN8Ye-12" value="写入 binlog" style="endArrow=classic;html=1;rounded=0;fontSize=16;" edge="1" parent="1">
          <mxGeometry width="50" height="50" relative="1" as="geometry">
            <mxPoint x="340" y="400" as="sourcePoint" />
            <mxPoint x="540" y="400" as="targetPoint" />
          </mxGeometry>
        </mxCell>
        <mxCell id="dXw9PHnPfxB79rEIN8Ye-13" value="ok" style="endArrow=classic;html=1;rounded=0;fontSize=16;" edge="1" parent="1">
          <mxGeometry width="50" height="50" relative="1" as="geometry">
            <mxPoint x="540" y="440" as="sourcePoint" />
            <mxPoint x="340" y="440" as="targetPoint" />
          </mxGeometry>
        </mxCell>
        <mxCell id="dXw9PHnPfxB79rEIN8Ye-14" value="调用引擎的提交事务接口，&lt;br&gt;将 redo log 状态设置为 commit" style="endArrow=classic;html=1;rounded=0;fontSize=16;" edge="1" parent="1">
          <mxGeometry width="50" height="50" relative="1" as="geometry">
            <mxPoint x="340" y="490" as="sourcePoint" />
            <mxPoint x="740" y="490" as="targetPoint" />
          </mxGeometry>
        </mxCell>
        <mxCell id="dXw9PHnPfxB79rEIN8Ye-17" value="&lt;span style=&quot;background-color: rgb(255, 0, 0);&quot;&gt;&amp;nbsp; &amp;nbsp; prepare 阶段&lt;/span&gt;" style="rounded=1;whiteSpace=wrap;html=1;fontSize=16;align=left;verticalAlign=top;fillColor=#cce5ff;strokeColor=#36393d;" vertex="1" parent="1">
          <mxGeometry x="310" y="220" width="470" height="130" as="geometry" />
        </mxCell>
        <mxCell id="dXw9PHnPfxB79rEIN8Ye-1" value="事务请求" style="rounded=0;whiteSpace=wrap;html=1;fontSize=16;fillColor=#0050ef;strokeColor=#001DBC;fontColor=#ffffff;" vertex="1" parent="1">
          <mxGeometry x="80" y="120" width="120" height="40" as="geometry" />
        </mxCell>
        <mxCell id="dXw9PHnPfxB79rEIN8Ye-2" value="MySQL Server" style="rounded=0;whiteSpace=wrap;html=1;fontSize=16;fillColor=#008a00;fontColor=#ffffff;strokeColor=#005700;" vertex="1" parent="1">
          <mxGeometry x="280" y="120" width="120" height="40" as="geometry" />
        </mxCell>
        <mxCell id="dXw9PHnPfxB79rEIN8Ye-3" value="binlog" style="rounded=0;whiteSpace=wrap;html=1;fontSize=16;fillColor=#6a00ff;fontColor=#ffffff;strokeColor=#3700CC;" vertex="1" parent="1">
          <mxGeometry x="480" y="120" width="120" height="40" as="geometry" />
        </mxCell>
        <mxCell id="dXw9PHnPfxB79rEIN8Ye-4" value="innodb存储引擎" style="rounded=0;whiteSpace=wrap;html=1;fontSize=16;fillColor=#d80073;fontColor=#ffffff;strokeColor=#A50040;" vertex="1" parent="1">
          <mxGeometry x="680" y="120" width="120" height="40" as="geometry" />
        </mxCell>
        <mxCell id="dXw9PHnPfxB79rEIN8Ye-5" value="" style="endArrow=none;dashed=1;html=1;dashPattern=1 3;strokeWidth=2;rounded=0;fontSize=16;entryX=0.5;entryY=1;entryDx=0;entryDy=0;" edge="1" parent="1" target="dXw9PHnPfxB79rEIN8Ye-1">
          <mxGeometry width="50" height="50" relative="1" as="geometry">
            <mxPoint x="140" y="600" as="sourcePoint" />
            <mxPoint x="230" y="240" as="targetPoint" />
          </mxGeometry>
        </mxCell>
        <mxCell id="dXw9PHnPfxB79rEIN8Ye-6" value="" style="endArrow=none;dashed=1;html=1;dashPattern=1 3;strokeWidth=2;rounded=0;fontSize=16;entryX=0.5;entryY=1;entryDx=0;entryDy=0;" edge="1" parent="1">
          <mxGeometry width="50" height="50" relative="1" as="geometry">
            <mxPoint x="339.5" y="600" as="sourcePoint" />
            <mxPoint x="339.5" y="160" as="targetPoint" />
          </mxGeometry>
        </mxCell>
        <mxCell id="dXw9PHnPfxB79rEIN8Ye-7" value="" style="endArrow=none;dashed=1;html=1;dashPattern=1 3;strokeWidth=2;rounded=0;fontSize=16;entryX=0.5;entryY=1;entryDx=0;entryDy=0;" edge="1" parent="1">
          <mxGeometry width="50" height="50" relative="1" as="geometry">
            <mxPoint x="539.5" y="600" as="sourcePoint" />
            <mxPoint x="539.5" y="160" as="targetPoint" />
          </mxGeometry>
        </mxCell>
        <mxCell id="dXw9PHnPfxB79rEIN8Ye-8" value="" style="endArrow=none;dashed=1;html=1;dashPattern=1 3;strokeWidth=2;rounded=0;fontSize=16;entryX=0.5;entryY=1;entryDx=0;entryDy=0;" edge="1" parent="1">
          <mxGeometry width="50" height="50" relative="1" as="geometry">
            <mxPoint x="739.5" y="600" as="sourcePoint" />
            <mxPoint x="739.5" y="160" as="targetPoint" />
          </mxGeometry>
        </mxCell>
        <mxCell id="dXw9PHnPfxB79rEIN8Ye-9" value="事务提交" style="endArrow=classic;html=1;rounded=0;fontSize=16;" edge="1" parent="1">
          <mxGeometry width="50" height="50" relative="1" as="geometry">
            <mxPoint x="140" y="200" as="sourcePoint" />
            <mxPoint x="340" y="200" as="targetPoint" />
          </mxGeometry>
        </mxCell>
        <mxCell id="dXw9PHnPfxB79rEIN8Ye-10" value="写入 redo log" style="endArrow=classic;html=1;rounded=0;fontSize=16;" edge="1" parent="1">
          <mxGeometry width="50" height="50" relative="1" as="geometry">
            <mxPoint x="340" y="260" as="sourcePoint" />
            <mxPoint x="740" y="260" as="targetPoint" />
          </mxGeometry>
        </mxCell>
        <mxCell id="dXw9PHnPfxB79rEIN8Ye-11" value="ok" style="endArrow=classic;html=1;rounded=0;fontSize=16;" edge="1" parent="1">
          <mxGeometry width="50" height="50" relative="1" as="geometry">
            <mxPoint x="740" y="310" as="sourcePoint" />
            <mxPoint x="340" y="310" as="targetPoint" />
          </mxGeometry>
        </mxCell>
        <mxCell id="dXw9PHnPfxB79rEIN8Ye-16" value="ok" style="endArrow=classic;html=1;rounded=0;fontSize=16;" edge="1" parent="1">
          <mxGeometry width="50" height="50" relative="1" as="geometry">
            <mxPoint x="340" y="570" as="sourcePoint" />
            <mxPoint x="140" y="570" as="targetPoint" />
          </mxGeometry>
        </mxCell>
        <mxCell id="dXw9PHnPfxB79rEIN8Ye-15" value="ok" style="endArrow=classic;html=1;rounded=0;fontSize=16;" edge="1" parent="1">
          <mxGeometry width="50" height="50" relative="1" as="geometry">
            <mxPoint x="740" y="530" as="sourcePoint" />
            <mxPoint x="340" y="530" as="targetPoint" />
          </mxGeometry>
        </mxCell>
      </root>
    </mxGraphModel>
  </diagram>
</mxfile>
